,
.   http://www.scenetime.com/signup.php  ---&gt;  Hottest scene tracker on the net !!!  

    Join Now   http://www.scenetime.com/signup.php

    seed back for speed


 



...................................NFO:.................................................                                                                                                     
       
     
     
       
       
     
     
                                         
                                         
                EXVID                    
                                         
         
                                         
         Filled the Archives             
                                         
         
                                         
                With:                    
                                         
         
                                         
                                    
     E240                           
                                    
     SP               (C) 2009      
                                         
     
     
     
                                                                                  
                                                                                   
                     13.2010.WS.DVDRip.XviD-EXViD                                   
                                                                                   
                                                                                  
     
                                                                                               
EXViD aims to iNTERNAL those releases which have been lost in the archives.
EXViD aims to PRE non-internal releases which have poor sources and are likely skipped by others.
 
http://www.imdb.com/title/tt0798817/
Subtitles: NL
Date: 2011.11

Director: Gla Babluani

Genres: Drama | Thriller

Plot:
A naive young man assumes a dead man's identity and finds himself embroiled in an underground
world of power, violence, and chance where men gamble behind closed doors on the lives of other
men.

Cast:
Jason Statham 	 ... 	Jasper 
Alexander Skarsgrd 	 ... 	Jack 
Mickey Rourke 	 ... 	Jefferson 
Michael Shannon 	 ... 	 Henry 
Emmanuelle Chriqui 	 ... 	 Aileen 
Ray Winstone 	 ... 	Ronald Lynn 
50 Cent 	 ... 	 Jimmy 
Gaby Hoffmann 	 ... 	 Clara 
David Zayas 	 ... 	Detective Larry Mullane 
Sam Riley 	 ... 	 Vince 
Ben Gazzara 	 ... 	Schlondorff 
Daisy Tahan 	 ... 	 Jenny 
Chuck Zito 	 ... 	 Ted 
Wayne Duvall 	 ... 	 Mr. Taylor 
Stephen Gevedon 	 ... 	 Mackinnon

Stats:
Format                           : AVI
Format/Info                      : Audio Video Interleave
File size                        : 700 MiB
Duration                         : 1h 26mn
Overall bit rate                 : 1 129 Kbps
Writing application              : VirtualDubMod 1.5.10.2 (build 2540/release)
Writing library                  : VirtualDubMod build 2540/release

Video
ID                               : 0
Format                           : MPEG-4 Visual
Format profile                   : Advanced Simple@L5
Format settings, BVOP            : Yes
Format settings, QPel            : No
Format settings, GMC             : No warppoints
Format settings, Matrix          : Default (H.263)
Muxing mode                      : Packed bitstream
Codec ID                         : XVID
Codec ID/Hint                    : XviD
Duration                         : 1h 26mn
Bit rate                         : 995 Kbps
Width                            : 640 pixels
Height                           : 272 pixels
Display aspect ratio             : 2.35:1
Frame rate                       : 25.000 fps
Color space                      : YUV
Chroma subsampling               : 4:2:0
Bit depth                        : 8 bits
Scan type                        : Progressive
Bits/(Pixel*Frame)               : 0.229
Stream size                      : 616 MiB (88%)
Writing library                  : XviD 62

Audio
ID                               : 1
Format                           : MPEG Audio
Format version                   : Version 1
Format profile                   : Layer 3
Mode                             : Joint stereo
Mode extension                   : MS Stereo
Codec ID                         : 55
Codec ID/Hint                    : MP3
Duration                         : 1h 26mn
Bit rate mode                    : Variable
Bit rate                         : 122 Kbps
Nominal bit rate                 : 128 Kbps
Channel(s)                       : 2 channels
Sampling rate                    : 48.0 KHz
Stream size                      : 75.5 MiB (11%)
Alignment                        : Aligned on interleaves
Interleave, duration             : 24 ms (0.60 video frame)
Interleave, preload duration     : 151 ms
Writing library                  : LAME3.98r
Encoding settings                : -m j -V 4 -q 2 -lowpass 17 --abr 128




Release notes:
The NODLABS release has an AR of 1.78 while ours is 2.35 and showing more image on the left/right.

See screenshot in sample dir for comparison. Our release is also around 7 minutes shorter.

enjoy!

Looking for:
75TB+ Archives
DUTCH/FLEMiSH Archives
                                                                                                    
Greets: CRBS EPiSODE FiCO FLS iLS KLASSiGER LiPSYNC MADE NODLABS RUNNER SPRiNTER      
   

                                                                    ASCII DONE BY XX^NFO 2oo9